<mxfile host="Electron" modified="2024-12-19T23:55:36.340Z" agent="Mozilla/5.0 (Windows NT 10.0; Win64; x64) AppleWebKit/537.36 (KHTML, like Gecko) draw.io/23.1.5 Chrome/120.0.6099.109 Electron/28.1.0 Safari/537.36" etag="dkU8psismWYs6S3dsrnt" version="23.1.5" type="device">
  <diagram name="Page-1" id="3PaT8SmHDdmnQQZh3zUp">
    <mxGraphModel dx="1221" dy="649" grid="1" gridSize="10" guides="1" tooltips="1" connect="1" arrows="1" fold="1" page="1" pageScale="1" pageWidth="850" pageHeight="1100" math="0" shadow="0">
      <root>
        <mxCell id="0" />
        <mxCell id="1" parent="0" />
        <mxCell id="nBsQBsfnLiETg84Mq4OO-1" value="OS Function (1)" style="rounded=0;whiteSpace=wrap;html=1;" vertex="1" parent="1">
          <mxGeometry x="170" y="720" width="140" height="60" as="geometry" />
        </mxCell>
        <mxCell id="nBsQBsfnLiETg84Mq4OO-2" value="Program 1 (2)" style="rounded=0;whiteSpace=wrap;html=1;" vertex="1" parent="1">
          <mxGeometry x="170" y="550" width="140" height="80" as="geometry" />
        </mxCell>
        <mxCell id="nBsQBsfnLiETg84Mq4OO-4" value="Context Switch IRQ (3)" style="rounded=0;whiteSpace=wrap;html=1;" vertex="1" parent="1">
          <mxGeometry x="170" y="490" width="140" height="60" as="geometry" />
        </mxCell>
        <mxCell id="nBsQBsfnLiETg84Mq4OO-5" value="OS Function (4)" style="rounded=0;whiteSpace=wrap;html=1;" vertex="1" parent="1">
          <mxGeometry x="435" y="720" width="150" height="60" as="geometry" />
        </mxCell>
        <mxCell id="nBsQBsfnLiETg84Mq4OO-7" value="Program 2 (5)" style="rounded=0;whiteSpace=wrap;html=1;" vertex="1" parent="1">
          <mxGeometry x="440" y="380" width="140" height="80" as="geometry" />
        </mxCell>
        <mxCell id="nBsQBsfnLiETg84Mq4OO-8" value="Context Switch IRQ (6)" style="rounded=0;whiteSpace=wrap;html=1;" vertex="1" parent="1">
          <mxGeometry x="440" y="320" width="140" height="60" as="geometry" />
        </mxCell>
        <mxCell id="nBsQBsfnLiETg84Mq4OO-9" value="OS Function (7)" style="rounded=0;whiteSpace=wrap;html=1;" vertex="1" parent="1">
          <mxGeometry x="670" y="720" width="150" height="60" as="geometry" />
        </mxCell>
        <mxCell id="nBsQBsfnLiETg84Mq4OO-10" value="Program 3 (8)" style="rounded=0;whiteSpace=wrap;html=1;" vertex="1" parent="1">
          <mxGeometry x="670" y="210" width="140" height="80" as="geometry" />
        </mxCell>
        <mxCell id="nBsQBsfnLiETg84Mq4OO-11" value="Context Switch IRQ (9)" style="rounded=0;whiteSpace=wrap;html=1;" vertex="1" parent="1">
          <mxGeometry x="670" y="150" width="140" height="60" as="geometry" />
        </mxCell>
        <mxCell id="nBsQBsfnLiETg84Mq4OO-12" value="" style="rounded=0;whiteSpace=wrap;html=1;" vertex="1" parent="1">
          <mxGeometry x="40" y="30" width="30" height="780" as="geometry" />
        </mxCell>
        <mxCell id="nBsQBsfnLiETg84Mq4OO-14" value="Stack Memory" style="html=1;shadow=0;dashed=0;align=center;verticalAlign=middle;shape=mxgraph.arrows2.arrow;dy=0.6;dx=40;flipH=1;notch=0;" vertex="1" parent="1">
          <mxGeometry x="90" y="50" width="180" height="40" as="geometry" />
        </mxCell>
        <mxCell id="nBsQBsfnLiETg84Mq4OO-16" value="" style="endArrow=classic;html=1;rounded=0;" edge="1" parent="1">
          <mxGeometry width="50" height="50" relative="1" as="geometry">
            <mxPoint x="120" y="801.5999755859375" as="sourcePoint" />
            <mxPoint x="120" y="200" as="targetPoint" />
          </mxGeometry>
        </mxCell>
        <mxCell id="nBsQBsfnLiETg84Mq4OO-17" value="&lt;font style=&quot;font-size: 14px;&quot;&gt;Decreasing &lt;br&gt;Memory &lt;br&gt;Address&lt;/font&gt;" style="edgeLabel;html=1;align=center;verticalAlign=middle;resizable=0;points=[];" vertex="1" connectable="0" parent="nBsQBsfnLiETg84Mq4OO-16">
          <mxGeometry x="0.6376" y="1" relative="1" as="geometry">
            <mxPoint as="offset" />
          </mxGeometry>
        </mxCell>
      </root>
    </mxGraphModel>
  </diagram>
</mxfile>
